# xmcd
#
# Track frame offsets: 
#        150
#        7554
#        19161
#        23157
#        29311
#        34168
#        39533
#        47159
#        59323
#        75707
#        82946
#        94853
#        105008
#        120790
#        131016
#        140550
#
# Disc length: 2037 seconds
#
# Revision: 0
# Processed by: cddbd v1.5.2PL0 Copyright (c) Steve Scherf et al.
# Submitted via: ExactAudioCopy v0.99pb4
#
DISCID=b307f310
DTITLE=Ferlin Husky - Live At The Louisiana Hayride
DYEAR=1900
DGENRE=Country
TTITLE0=I Feel Better All Over
TTITLE1=Gone
TTITLE2=My Cousin The Inventor (Simon)
TTITLE3=Don't Forbid Me (Simon)
TTITLE4=Hound Dog
TTITLE5=Little Red Webb (Simon)
TTITLE6=Alabama Jubilee
TTITLE7=I Feel That Old Hearache Again
TTITLE8=Lum and Abner
TTITLE9=Yes I Will
TTITLE10=I Feel Better All Over (Alternate Take)
TTITLE11=Cuz, You're So Sweet (Simon)
TTITLE12=Country Music Is Here To Stay (Simon)
TTITLE13=Don't Be Cruel
TTITLE14=I'll Baby Sit With You
TTITLE15=Missing Persons
EXTD=
EXTT0=
EXTT1=
EXTT2=
EXTT3=
EXTT4=
EXTT5=
EXTT6=
EXTT7=
EXTT8=
EXTT9=
EXTT10=
EXTT11=
EXTT12=
EXTT13=
EXTT14=
EXTT15=
PLAYORDER=
